<svg width="60" height="60" viewBox="0 0 60 60" fill="none" xmlns="http://www.w3.org/2000/svg">
<g id="User images/User Images">
<rect width="60" height="60" rx="30" fill="#EADDFF"/>
<g id="Avatar Placeholder">
<path fill-rule="evenodd" clip-rule="evenodd" d="M39.0013 24C39.0013 28.9706 34.9719 33 30.0013 33C25.0308 33 21.0013 28.9706 21.0013 24C21.0013 19.0294 25.0308 15 30.0013 15C34.9719 15 39.0013 19.0294 39.0013 24ZM36.0013 24C36.0013 27.3137 33.3151 30 30.0013 30C26.6876 30 24.0013 27.3137 24.0013 24C24.0013 20.6863 26.6876 18 30.0013 18C33.3151 18 36.0013 20.6863 36.0013 24Z" fill="#6750A4"/>
<path d="M30.0013 37.5C20.2898 37.5 12.0153 43.2426 8.86328 51.2881C9.63112 52.0505 10.44 52.7717 11.2863 53.4481C13.6334 46.0615 20.9964 40.5 30.0013 40.5C39.0063 40.5 46.3693 46.0615 48.7164 53.4481C49.5627 52.7718 50.3716 52.0506 51.1394 51.2881C47.9875 43.2426 39.7129 37.5 30.0013 37.5Z" fill="#6750A4"/>
</g>
</g>
</svg>
