<svg width="73" height="74" viewBox="0 0 73 74" fill="none" xmlns="http://www.w3.org/2000/svg">
    <rect width="73" height="74" fill="#F5F5F5"/>
    <rect x="-300" y="-167" width="672" height="704" rx="16" fill="#1D1B20"/>
    <g filter="url(#filter0_dd_54095_34560)">
        <rect x="-64" y="-67" width="200" height="200" rx="18" fill="#F0F0F0"/>
    </g>
    <g filter="url(#filter1_dd_54095_34560)">
        <rect x="11" y="7" width="51" height="52" rx="25.5" fill="white"/>
        <path d="M37 37C39.2091 37 41 35.2091 41 33C41 30.7909 39.2091 29 37 29C34.7909 29 33 30.7909 33 33C33 35.2091 34.7909 37 37 37Z" fill="#9747FF"/>
        <path d="M33.25 20.5L30.9625 23H27C25.625 23 24.5 24.125 24.5 25.5V40.5C24.5 41.875 25.625 43 27 43H47C48.375 43 49.5 41.875 49.5 40.5V25.5C49.5 24.125 48.375 23 47 23H43.0375L40.75 20.5H33.25ZM37 39.25C33.55 39.25 30.75 36.45 30.75 33C30.75 29.55 33.55 26.75 37 26.75C40.45 26.75 43.25 29.55 43.25 33C43.25 36.45 40.45 39.25 37 39.25Z" fill="#9747FF"/>
    </g>
    <defs>
        <filter id="filter0_dd_54095_34560" x="-82" y="-77" width="236" height="236" filterUnits="userSpaceOnUse" color-interpolation-filters="sRGB">
            <feFlood flood-opacity="0" result="BackgroundImageFix"/>
            <feColorMatrix in="SourceAlpha" type="matrix" values="0 0 0 0 0 0 0 0 0 0 0 0 0 0 0 0 0 0 127 0" result="hardAlpha"/>
            <feOffset dy="4"/>
            <feGaussianBlur stdDeviation="2"/>
            <feColorMatrix type="matrix" values="0 0 0 0 0 0 0 0 0 0 0 0 0 0 0 0 0 0 0.3 0"/>
            <feBlend mode="normal" in2="BackgroundImageFix" result="effect1_dropShadow_54095_34560"/>
            <feColorMatrix in="SourceAlpha" type="matrix" values="0 0 0 0 0 0 0 0 0 0 0 0 0 0 0 0 0 0 127 0" result="hardAlpha"/>
            <feMorphology radius="6" operator="dilate" in="SourceAlpha" result="effect2_dropShadow_54095_34560"/>
            <feOffset dy="8"/>
            <feGaussianBlur stdDeviation="6"/>
            <feColorMatrix type="matrix" values="0 0 0 0 0 0 0 0 0 0 0 0 0 0 0 0 0 0 0.15 0"/>
            <feBlend mode="normal" in2="effect1_dropShadow_54095_34560" result="effect2_dropShadow_54095_34560"/>
            <feBlend mode="normal" in="SourceGraphic" in2="effect2_dropShadow_54095_34560" result="shape"/>
        </filter>
        <filter id="filter1_dd_54095_34560" x="0" y="0" width="73" height="74" filterUnits="userSpaceOnUse" color-interpolation-filters="sRGB">
            <feFlood flood-opacity="0" result="BackgroundImageFix"/>
            <feColorMatrix in="SourceAlpha" type="matrix" values="0 0 0 0 0 0 0 0 0 0 0 0 0 0 0 0 0 0 127 0" result="hardAlpha"/>
            <feOffset dy="1"/>
            <feGaussianBlur stdDeviation="1.5"/>
            <feColorMatrix type="matrix" values="0 0 0 0 0 0 0 0 0 0 0 0 0 0 0 0 0 0 0.3 0"/>
            <feBlend mode="normal" in2="BackgroundImageFix" result="effect1_dropShadow_54095_34560"/>
            <feColorMatrix in="SourceAlpha" type="matrix" values="0 0 0 0 0 0 0 0 0 0 0 0 0 0 0 0 0 0 127 0" result="hardAlpha"/>
            <feMorphology radius="3" operator="dilate" in="SourceAlpha" result="effect2_dropShadow_54095_34560"/>
            <feOffset dy="4"/>
            <feGaussianBlur stdDeviation="4"/>
            <feColorMatrix type="matrix" values="0 0 0 0 0 0 0 0 0 0 0 0 0 0 0 0 0 0 0.15 0"/>
            <feBlend mode="normal" in2="effect1_dropShadow_54095_34560" result="effect2_dropShadow_54095_34560"/>
            <feBlend mode="normal" in="SourceGraphic" in2="effect2_dropShadow_54095_34560" result="shape"/>
        </filter>
    </defs>
</svg>
